<svg xmlns="http://www.w3.org/2000/svg" width="110" height="60" viewBox="0 0 110 60">
  <g fill="none" stroke="#DED5BF" stroke-width="1.1" stroke-linecap="round">
    <!-- Bovenste golfrij: kruin links, dal rechts -->
    <path d="M0 12 C19.8 -0.15 35.2 -0.15 55 12 C74.8 24.15 90.2 24.15 110 12" />
    <path d="M0 15.5 C19.8 3.35 35.2 3.35 55 15.5 C74.8 27.65 90.2 27.65 110 15.5" />
    <path d="M0 19 C19.8 6.85 35.2 6.85 55 19 C74.8 31.15 90.2 31.15 110 19" />
    <!-- Onderste golfrij: dal links, kruin rechts (versprongen) -->
    <path d="M0 42 C19.8 54.15 35.2 54.15 55 42 C74.8 29.85 90.2 29.85 110 42" />
    <path d="M0 45.5 C19.8 57.65 35.2 57.65 55 45.5 C74.8 33.35 90.2 33.35 110 45.5" />
    <path d="M0 49 C19.8 61.15 35.2 61.15 55 49 C74.8 36.85 90.2 36.85 110 49" />
  </g>
</svg>
